<svg width="105" height="105" viewBox="0 0 105 105" fill="none" xmlns="http://www.w3.org/2000/svg">
<g clip-path="url(#clip0_12_29)">
<path d="M52.5 105C81.4949 105 105 81.4949 105 52.5C105 23.5051 81.4949 0 52.5 0C23.5051 0 0 23.5051 0 52.5C0 81.4949 23.5051 105 52.5 105Z" fill="#35C38D"/>
<path d="M84.4601 40.7479C84.2326 39.8893 83.837 39.0845 83.2963 38.3798C82.7556 37.6752 82.0805 37.0848 81.3101 36.6429L73.3961 32.0739C73.2546 31.9922 73.0984 31.9392 72.9364 31.9179C72.7744 31.8966 72.6098 31.9074 72.452 31.9497C72.2942 31.992 72.1463 32.0649 72.0167 32.1644C71.887 32.2639 71.7783 32.3879 71.6966 32.5294C71.6149 32.6709 71.5619 32.8271 71.5406 32.9891C71.5193 33.1511 71.5301 33.3157 71.5724 33.4735C71.6147 33.6313 71.6877 33.7792 71.7871 33.9088C71.8866 34.0384 72.0106 34.1472 72.1521 34.2289L80.0661 38.7969C81.0475 39.3635 81.7637 40.2968 82.057 41.3915C82.3503 42.4861 82.1967 43.6524 81.6301 44.6339L75.3461 55.5119V46.6429C75.346 45.9971 75.1877 45.3611 74.8851 44.7906C74.5825 44.2201 74.1448 43.7324 73.6101 43.3702C73.0755 43.0079 72.4603 42.7821 71.8183 42.7125C71.1763 42.6429 70.5269 42.7316 69.9271 42.9709V39.5969C69.9271 38.9456 69.7662 38.3043 69.4587 37.7302C69.1512 37.156 68.7066 36.6667 68.1645 36.3057C67.6223 35.9448 66.9994 35.7233 66.3511 35.6611C65.7027 35.5988 65.049 35.6977 64.4481 35.9489C64.2868 35.0333 63.808 34.2039 63.0959 33.6063C62.3837 33.0087 61.4838 32.6811 60.5541 32.6811C59.6244 32.6811 58.7245 33.0087 58.0124 33.6063C57.3002 34.2039 56.8215 35.0333 56.6601 35.9489C56.0593 35.6983 55.406 35.6 54.7581 35.6625C54.1101 35.7251 53.4877 35.9467 52.9459 36.3076C52.4042 36.6684 51.9599 37.1575 51.6526 37.7313C51.3453 38.3051 51.1843 38.9459 51.1841 39.5969V54.6469L49.8031 52.4919C49.2285 51.5956 48.3507 50.9358 47.3299 50.6331C46.3092 50.3304 45.2136 50.4049 44.2433 50.843C43.2729 51.2812 42.4925 52.0537 42.0445 53.0195C41.5965 53.9854 41.5108 55.0801 41.8031 56.1039L41.9031 56.4659C42.4454 58.36 43.1827 60.1928 44.1031 61.9349L35.5361 56.9859C34.5557 56.4183 33.8404 55.485 33.5472 54.3908C33.254 53.2965 33.4068 52.1306 33.9721 51.1489L48.7071 25.6269C48.9877 25.1407 49.3613 24.7145 49.8067 24.3727C50.252 24.031 50.7603 23.7803 51.3026 23.635C51.8448 23.4898 52.4104 23.4528 52.9669 23.5262C53.5234 23.5997 54.0601 23.782 54.5461 24.0629L62.4601 28.6319C62.7459 28.7968 63.0855 28.8415 63.4042 28.7561C63.7229 28.6707 63.9946 28.4622 64.1596 28.1764C64.3246 27.8906 64.3693 27.551 64.2838 27.2323C64.1984 26.9136 63.9899 26.6418 63.7041 26.4769L55.7881 21.9079C54.2352 21.0116 52.3899 20.7688 50.6581 21.2329C48.9262 21.6971 47.4496 22.8301 46.5531 24.3829L45.7671 25.7439C42.7233 24.8647 39.5777 24.3874 36.4101 24.3239H36.3841C36.0542 24.3206 35.7365 24.4485 35.5008 24.6794C35.2652 24.9104 35.1309 25.2255 35.1276 25.5554C35.1243 25.8853 35.2522 26.203 35.4831 26.4387C35.7141 26.6743 36.0292 26.8086 36.3591 26.8119C39.1037 26.8669 41.8313 27.2555 44.4821 27.9689L36.2461 42.2379C34.4559 41.6222 32.58 41.2922 30.6871 41.2599C30.5216 41.2533 30.3564 41.2798 30.2012 41.3379C30.046 41.3961 29.9041 41.4846 29.7836 41.5983C29.6631 41.7121 29.5666 41.8487 29.4996 42.0003C29.4327 42.1518 29.3967 42.3152 29.3937 42.4809C29.3908 42.6465 29.421 42.8111 29.4825 42.965C29.5441 43.1188 29.6357 43.2588 29.7521 43.3767C29.8685 43.4946 30.0073 43.5881 30.1603 43.6517C30.3133 43.7153 30.4774 43.7476 30.6431 43.7469C32.1129 43.772 33.5717 44.005 34.9761 44.4389L31.8211 49.9039C30.9269 51.4572 30.6854 53.3018 31.1493 55.0331C31.6133 56.7643 32.745 58.2409 34.2961 59.1389L47.1621 66.5669C48.6509 68.4158 50.3641 70.0722 52.2621 71.4979V83.4479C52.2621 83.7778 52.3932 84.0942 52.6265 84.3275C52.8598 84.5608 53.1762 84.6919 53.5061 84.6919C53.836 84.6919 54.1525 84.5608 54.3858 84.3275C54.619 84.0942 54.7501 83.7778 54.7501 83.4479V70.8679C54.7501 70.6699 54.7028 70.4748 54.6121 70.2988C54.5215 70.1228 54.3902 69.9709 54.2291 69.8559C49.4297 66.4156 45.9316 61.4564 44.3011 55.7809L44.2011 55.4189C44.0729 54.9694 44.1106 54.4887 44.3074 54.0647C44.5041 53.6406 44.8468 53.3015 45.2728 53.1091C45.6989 52.9168 46.1799 52.8841 46.6281 53.0169C47.0763 53.1498 47.4617 53.4394 47.7141 53.8329L51.3861 59.5649C51.5313 59.7911 51.7458 59.9642 51.9976 60.0583C52.2493 60.1524 52.5248 60.1625 52.7828 60.0869C53.0407 60.0114 53.2673 59.8543 53.4285 59.6392C53.5897 59.4242 53.6769 59.1627 53.6771 58.8939V53.7429C53.6771 53.7349 53.6771 53.7269 53.6771 53.7179V39.5969C53.6771 39.2081 53.8316 38.8352 54.1065 38.5603C54.3814 38.2853 54.7543 38.1309 55.1431 38.1309C55.5319 38.1309 55.9048 38.2853 56.1797 38.5603C56.4547 38.8352 56.6091 39.2081 56.6091 39.5969V51.2749C56.6091 51.6048 56.7402 51.9212 56.9735 52.1545C57.2068 52.3878 57.5232 52.5189 57.8531 52.5189C58.183 52.5189 58.4995 52.3878 58.7328 52.1545C58.966 51.9212 59.0971 51.6048 59.0971 51.2749V36.6309C59.0971 36.2421 59.2516 35.8692 59.5265 35.5943C59.8014 35.3193 60.1743 35.1649 60.5631 35.1649C60.9519 35.1649 61.3248 35.3193 61.5997 35.5943C61.8747 35.8692 62.0291 36.2421 62.0291 36.6309V51.2749C62.0291 51.6048 62.1602 51.9212 62.3935 52.1545C62.6268 52.3878 62.9432 52.5189 63.2731 52.5189C63.603 52.5189 63.9195 52.3878 64.1528 52.1545C64.386 51.9212 64.5171 51.6048 64.5171 51.2749V39.5969C64.512 39.4012 64.5461 39.2065 64.6175 39.0242C64.6888 38.8419 64.796 38.6758 64.9325 38.5356C65.0691 38.3954 65.2324 38.284 65.4128 38.2079C65.5931 38.1318 65.7869 38.0926 65.9826 38.0926C66.1784 38.0926 66.3721 38.1318 66.5525 38.2079C66.7328 38.284 66.8961 38.3954 67.0327 38.5356C67.1693 38.6758 67.2764 38.8419 67.3478 39.0242C67.4191 39.2065 67.4532 39.4012 67.4481 39.5969V51.2749C67.4481 51.6048 67.5792 51.9212 67.8125 52.1545C68.0458 52.3878 68.3622 52.5189 68.6921 52.5189C69.022 52.5189 69.3385 52.3878 69.5718 52.1545C69.805 51.9212 69.9361 51.6048 69.9361 51.2749V46.6429C69.931 46.4472 69.9651 46.2525 70.0365 46.0702C70.1078 45.8879 70.215 45.7218 70.3515 45.5816C70.4881 45.4414 70.6514 45.33 70.8318 45.2539C71.0121 45.1778 71.2059 45.1386 71.4016 45.1386C71.5974 45.1386 71.7911 45.1778 71.9715 45.2539C72.1518 45.33 72.3151 45.4414 72.4517 45.5816C72.5883 45.7218 72.6954 45.8879 72.7668 46.0702C72.8381 46.2525 72.8722 46.4472 72.8671 46.6429V56.8429C72.8534 61.7621 70.8967 66.4766 67.4231 69.9599C67.3071 70.0754 67.2151 70.2127 67.1523 70.3639C67.0895 70.5151 67.0571 70.6772 67.0571 70.8409V83.4509C67.0571 83.7808 67.1882 84.0972 67.4215 84.3305C67.6548 84.5638 67.9712 84.6949 68.3011 84.6949C68.631 84.6949 68.9475 84.5638 69.1808 84.3305C69.414 84.0972 69.5451 83.7808 69.5451 83.4509V71.3509C72.2192 68.5641 74.0665 65.0892 74.8811 61.3139L83.7891 45.8839C84.2355 45.116 84.525 44.2672 84.6411 43.3866C84.7571 42.506 84.6973 41.6112 84.4651 40.7539L84.4601 40.7479Z" fill="white"/>
<path d="M22.2452 29.4739C22.4089 29.4724 22.5707 29.4384 22.7212 29.3739C25.2302 28.3368 27.8552 27.6058 30.5392 27.1969C30.703 27.1749 30.8608 27.1205 31.0034 27.0369C31.1459 26.9532 31.2704 26.842 31.3694 26.7097C31.4685 26.5774 31.5403 26.4267 31.5804 26.2664C31.6206 26.1061 31.6285 25.9393 31.6035 25.7759C31.5785 25.6126 31.5212 25.4558 31.4349 25.3148C31.3487 25.1738 31.2352 25.0514 31.1011 24.9548C30.967 24.8581 30.815 24.7892 30.654 24.7519C30.4929 24.7147 30.3261 24.7099 30.1632 24.7379C27.2808 25.1786 24.4621 25.9652 21.7682 27.0809C21.5024 27.1912 21.2831 27.3902 21.1476 27.6441C21.012 27.8979 20.9687 28.1909 21.025 28.4731C21.0812 28.7553 21.2336 29.0093 21.4561 29.1918C21.6786 29.3743 21.9574 29.474 22.2452 29.4739Z" fill="white"/>
<path d="M22.2451 37.5849C22.4074 37.5848 22.5681 37.5529 22.7181 37.4909C26.6178 35.8909 30.8634 35.3206 35.0471 35.8349C35.2114 35.8592 35.3789 35.8504 35.5397 35.8089C35.7005 35.7674 35.8514 35.6942 35.9835 35.5935C36.1156 35.4928 36.2261 35.3666 36.3087 35.2225C36.3912 35.0784 36.4441 34.9192 36.4641 34.7543C36.4841 34.5895 36.4709 34.4222 36.4253 34.2625C36.3797 34.1029 36.3026 33.9539 36.1984 33.8245C36.0943 33.6951 35.9654 33.5878 35.8192 33.5091C35.6729 33.4303 35.5124 33.3816 35.3471 33.3659C30.7402 32.7998 26.0652 33.4279 21.7711 35.1899C21.5043 35.2993 21.2838 35.498 21.1472 35.752C21.0107 36.006 20.9667 36.2995 21.0227 36.5824C21.0787 36.8653 21.2312 37.1199 21.4542 37.3028C21.6771 37.4856 21.9567 37.5854 22.2451 37.5849Z" fill="white"/>
<path d="M24.0932 42.3738C23.2506 42.6841 22.4323 43.0568 21.6452 43.4888C21.5021 43.5676 21.3758 43.6738 21.2738 43.8014C21.1717 43.929 21.0957 44.0754 21.0502 44.2324C21.0047 44.3893 20.9905 44.5536 21.0086 44.716C21.0266 44.8784 21.0764 45.0357 21.1552 45.1788C21.234 45.322 21.3402 45.4482 21.4678 45.5503C21.5954 45.6524 21.7418 45.7283 21.8987 45.7738C22.0557 45.8193 22.22 45.8335 22.3824 45.8155C22.5448 45.7975 22.7021 45.7476 22.8452 45.6688C23.5233 45.2962 24.2283 44.9746 24.9542 44.7068C25.2638 44.5928 25.5155 44.3604 25.6538 44.0608C25.7921 43.7612 25.8057 43.419 25.6917 43.1093C25.5777 42.7997 25.3453 42.548 25.0457 42.4097C24.7461 42.2714 24.4038 42.2578 24.0942 42.3718L24.0932 42.3738Z" fill="white"/>
<path d="M67.9271 31.5979C68.2149 31.5979 68.4939 31.4982 68.7164 31.3156C68.9389 31.133 69.0913 30.8789 69.1475 30.5966C69.2036 30.3143 69.1602 30.0213 69.0245 29.7674C68.8888 29.5136 68.6692 29.3146 68.4033 29.2045C68.1374 29.0944 67.8415 29.0799 67.566 29.1635C67.2906 29.2471 67.0527 29.4236 66.8928 29.663C66.733 29.9024 66.6611 30.1898 66.6894 30.4762C66.7177 30.7626 66.8445 31.0304 67.0481 31.2339C67.282 31.4658 67.5977 31.5965 67.9271 31.5979Z" fill="white"/>
</g>
<defs>
<clipPath id="clip0_12_29">
<rect width="105" height="105" fill="white"/>
</clipPath>
</defs>
</svg>
