<svg width="105" height="105" viewBox="0 0 105 105" fill="none" xmlns="http://www.w3.org/2000/svg">
<g clip-path="url(#clip0_12_21)">
<path d="M52.5 105C81.4949 105 105 81.4949 105 52.5C105 23.5051 81.4949 0 52.5 0C23.5051 0 0 23.5051 0 52.5C0 81.4949 23.5051 105 52.5 105Z" fill="#35C38D"/>
<path d="M52.081 80.1961C51.9855 80.1971 51.8902 80.187 51.797 80.1661L25.6 74.6471C25.2898 74.5825 25.0112 74.4132 24.8109 74.1676C24.6107 73.922 24.5009 73.615 24.5 73.2981V48.4601C24.5 48.2789 24.5357 48.0995 24.605 47.932C24.6744 47.7646 24.776 47.6125 24.9042 47.4843C25.0323 47.3562 25.1845 47.2545 25.3519 47.1852C25.5193 47.1158 25.6988 47.0801 25.88 47.0801C26.0612 47.0801 26.2407 47.1158 26.4081 47.1852C26.5755 47.2545 26.7277 47.3562 26.8558 47.4843C26.984 47.6125 27.0856 47.7646 27.155 47.932C27.2243 48.0995 27.26 48.2789 27.26 48.4601V72.1771L50.701 77.1141V26.6231C50.6638 26.4092 50.6787 26.1894 50.7445 25.9824C50.8103 25.7754 50.9251 25.5873 51.079 25.4341C51.2732 25.2384 51.5208 25.1044 51.7909 25.0489C52.0609 24.9934 52.3414 25.0189 52.597 25.1221C52.8496 25.2232 53.0666 25.397 53.2204 25.6215C53.3742 25.846 53.4579 26.111 53.461 26.3831V78.8141C53.4607 79.18 53.3153 79.5309 53.0565 79.7896C52.7978 80.0484 52.4469 80.1939 52.081 80.1941V80.1961Z" fill="white"/>
<path d="M52.1361 80.1971C51.7702 80.1968 51.4193 80.0513 51.1606 79.7926C50.9018 79.5339 50.7564 79.183 50.7561 78.8171V27.0741C50.7561 26.7081 50.9015 26.3571 51.1603 26.0983C51.4191 25.8395 51.7701 25.6941 52.1361 25.6941C52.5021 25.6941 52.8531 25.8395 53.1119 26.0983C53.3707 26.3571 53.5161 26.7081 53.5161 27.0741V77.1171L76.9491 72.1771V48.4611C76.9491 48.0951 77.0945 47.7441 77.3533 47.4853C77.6121 47.2265 77.9631 47.0811 78.3291 47.0811C78.6951 47.0811 79.0461 47.2265 79.3049 47.4853C79.5637 47.7441 79.7091 48.0951 79.7091 48.4611V73.2981C79.7082 73.615 79.5984 73.9219 79.3982 74.1675C79.1979 74.4131 78.9193 74.5824 78.6091 74.6471L52.4091 80.1661C52.3159 80.187 52.2206 80.197 52.1251 80.1961L52.1361 80.1971Z" fill="white"/>
<path d="M83.852 49.84H61.77C61.5017 49.8397 61.2392 49.7612 61.0147 49.6142C60.7903 49.4671 60.6135 49.2579 60.506 49.012L50.861 26.935C50.7604 26.7029 50.7254 26.4477 50.76 26.1971C50.7946 25.9465 50.8974 25.7103 51.0572 25.5142C51.217 25.3181 51.4276 25.1697 51.666 25.0852C51.9044 25.0007 52.1614 24.9833 52.409 25.035L78.617 30.55C78.8525 30.5997 79.0708 30.7102 79.2504 30.8703C79.43 31.0305 79.5647 31.2348 79.641 31.463L85.16 48.022C85.2299 48.2295 85.2493 48.4506 85.2168 48.6671C85.1842 48.8836 85.1005 49.0893 84.9727 49.267C84.8449 49.4448 84.6766 49.5896 84.4817 49.6894C84.2868 49.7892 84.071 49.8411 83.852 49.841V49.84ZM62.672 47.08H81.942L77.273 33.089L54.462 28.285L62.672 47.08Z" fill="white"/>
<path d="M42.4631 49.8401H20.3801C20.1611 49.8402 19.9453 49.7883 19.7504 49.6885C19.5555 49.5887 19.3872 49.4439 19.2594 49.2661C19.1316 49.0884 19.0479 48.8827 19.0153 48.6662C18.9828 48.4497 19.0022 48.2286 19.0721 48.0211L24.5921 31.4641C24.6684 31.2359 24.8031 31.0316 24.9827 30.8714C25.1623 30.7113 25.3806 30.6008 25.6161 30.5511L51.8241 25.0311C52.0717 24.9794 52.3287 24.9968 52.5671 25.0813C52.8055 25.1658 53.0161 25.3142 53.1759 25.5103C53.3357 25.7064 53.4385 25.9426 53.4731 26.1932C53.5077 26.4438 53.4727 26.699 53.3721 26.9311L43.7271 49.0121C43.6199 49.2582 43.4432 49.4677 43.2187 49.6148C42.9941 49.7619 42.7315 49.8402 42.4631 49.8401ZM22.3001 47.0801H41.5611L49.7711 28.2801L26.9601 33.0801L22.3001 47.0801Z" fill="white"/>
</g>
<defs>
<clipPath id="clip0_12_21">
<rect width="105" height="105" fill="white"/>
</clipPath>
</defs>
</svg>
